<?xml version="1.0" encoding="UTF-8"?>
<svg xmlns="http://www.w3.org/2000/svg" xmlns:xlink="http://www.w3.org/1999/xlink" width="720" height="66.359604">
  <rect x="0" y="0" width="720" height="66.36" fill="white" />
  <text x="8" y="15" font-size="10" fill="#555" >angle-delims</text>
  <text x="182" y="15" font-size="10" fill="#c62828" >latex (dvisvgm)</text>
  <text x="452" y="15" font-size="10" fill="#1976d2" >latex* (native)</text>
  <line x1="180.00" y1="33.50" x2="710.00" y2="33.50" stroke="#e8e8e8" stroke-width="1" />
  <g transform="translate(190.00,33.50)" ><defs>
<path id='g0-97' d='M3.716065-3.765878C3.536737-4.134496 3.247821-4.403487 2.799502-4.403487C1.633873-4.403487 .398506-2.938979 .398506-1.484433C.398506-.547945 .946451 .109589 1.723537 .109589C1.92279 .109589 2.420922 .069738 3.01868-.637609C3.098381-.219178 3.447073 .109589 3.92528 .109589C4.273973 .109589 4.503113-.119552 4.662516-.438356C4.83188-.797011 4.961395-1.404732 4.961395-1.424658C4.961395-1.524284 4.871731-1.524284 4.841843-1.524284C4.742217-1.524284 4.732254-1.484433 4.702366-1.344956C4.533001-.697385 4.353674-.109589 3.945205-.109589C3.676214-.109589 3.646326-.368618 3.646326-.56787C3.646326-.787049 3.666252-.86675 3.775841-1.305106C3.88543-1.723537 3.905355-1.823163 3.995019-2.201743L4.353674-3.596513C4.423412-3.875467 4.423412-3.895392 4.423412-3.935243C4.423412-4.104608 4.303861-4.204234 4.134496-4.204234C3.895392-4.204234 3.745953-3.985056 3.716065-3.765878ZM3.068493-1.185554C3.01868-1.006227 3.01868-.986301 2.86924-.816936C2.430884-.268991 2.022416-.109589 1.743462-.109589C1.24533-.109589 1.105853-.657534 1.105853-1.046077C1.105853-1.544209 1.424658-2.769614 1.653798-3.227895C1.96264-3.815691 2.410959-4.184309 2.809465-4.184309C3.457036-4.184309 3.596513-3.367372 3.596513-3.307597S3.576588-3.188045 3.566625-3.138232L3.068493-1.185554Z'/>
<path id='g0-98' d='M2.381071-6.804483C2.381071-6.814446 2.381071-6.914072 2.251557-6.914072C2.022416-6.914072 1.295143-6.834371 1.036115-6.814446C.956413-6.804483 .846824-6.794521 .846824-6.615193C.846824-6.495641 .936488-6.495641 1.085928-6.495641C1.564134-6.495641 1.58406-6.425903 1.58406-6.326276C1.58406-6.256538 1.494396-5.917808 1.444583-5.708593L.627646-2.460772C.508095-1.96264 .468244-1.803238 .468244-1.454545C.468244-.508095 .996264 .109589 1.733499 .109589C2.909091 .109589 4.134496-1.374844 4.134496-2.809465C4.134496-3.716065 3.606476-4.403487 2.809465-4.403487C2.351183-4.403487 1.942715-4.11457 1.643836-3.805729L2.381071-6.804483ZM1.444583-3.038605C1.504359-3.257783 1.504359-3.277709 1.594022-3.387298C2.082192-4.034869 2.530511-4.184309 2.789539-4.184309C3.148194-4.184309 3.417186-3.88543 3.417186-3.247821C3.417186-2.660025 3.088418-1.514321 2.909091-1.135741C2.580324-.468244 2.122042-.109589 1.733499-.109589C1.39477-.109589 1.066002-.37858 1.066002-1.115816C1.066002-1.305106 1.066002-1.494396 1.225405-2.122042L1.444583-3.038605Z'/>
<path id='g1-68' d='M4.712329 17.285181C4.772105 17.43462 4.811955 17.524284 4.971357 17.524284C5.070984 17.524284 5.200498 17.444583 5.200498 17.285181C5.200498 17.235367 5.190535 17.215442 5.140722 17.09589L1.603985 8.56787L5.140722 .029888C5.190535-.089664 5.200498-.109589 5.200498-.159402C5.200498-.318804 5.070984-.398506 4.971357-.398506C4.811955-.398506 4.772105-.308842 4.712329-.159402L1.175592 8.368618C1.125778 8.498132 1.115816 8.508095 1.115816 8.56787C1.115816 8.617684 1.125778 8.637609 1.175592 8.757161L4.712329 17.285181Z'/>
<path id='g1-69' d='M.936488 17.09589C.886675 17.215442 .876712 17.235367 .876712 17.285181C.876712 17.444583 1.006227 17.524284 1.105853 17.524284C1.265255 17.524284 1.305106 17.43462 1.364882 17.285181L4.901619 8.757161C4.951432 8.637609 4.961395 8.617684 4.961395 8.56787C4.961395 8.508095 4.951432 8.498132 4.901619 8.368618L1.364882-.159402C1.305106-.308842 1.265255-.398506 1.105853-.398506C1.006227-.398506 .876712-.318804 .876712-.159402C.876712-.109589 .886675-.089664 .936488 .029888L4.473225 8.557908L.936488 17.09589Z'/>
</defs>
<g id='page1'>
<use x='0' y='-11.058628' xlink:href='#g1-68'/>
<use x='7.283797' y='-6.739801' xlink:href='#g0-97'/>
<rect x='7.283797' y='-2.68991' height='.398484' width='5.266141'/>
<use x='7.779056' y='6.83387' xlink:href='#g0-98'/>
<use x='13.745452' y='-11.058628' xlink:href='#g1-69'/>
</g></g>
  <g transform="translate(460.00,33.50)" ><g transform="translate(0.0,0.000091552734375) scale(0.01,-0.01)"><path d="M555 -624C555 -621 554 -617 553 -614L213 250L553 1114C554 1117 555 1121 555 1124C555 1138 543 1150 529 1150C518 1150 509 1143 505 1134L161 260C160 257 159 253 159 250C159 247 160 243 161 240L505 -634C509 -643 518 -650 529 -650C543 -650 555 -638 555 -624Z"/></g>
<text x="7.3111267" y="-6.7650757" font-family="Latin Modern Math" font-size="10.0">𝑎</text>
<rect x="7.3111267" y="-2.699997" width="5.2858887" height="0.39997864" fill="black"/>
<text x="7.808243" y="6.859497" font-family="Latin Modern Math" font-size="10.0">𝑏</text>
<g transform="translate(13.797012,0.000091552734375) scale(0.01,-0.01)"><path d="M452 250C452 253 451 257 450 260L106 1134C102 1143 93 1150 82 1150C68 1150 56 1138 56 1124C56 1121 57 1117 58 1114L398 250L58 -614C57 -617 56 -621 56 -624C56 -638 68 -650 82 -650C93 -650 102 -643 106 -634L450 240C451 243 452 247 452 250Z"/></g></g>
  <text x="8.00" y="58.36" font-size="10" fill="#999" >$$\left\langle\frac{a}{b}\right\rangle$$</text>
</svg>
